
<svg width="26" height="26" viewBox="0 0 26 26" fill="none" xmlns="http://www.w3.org/2000/svg">
<path d="M20.9819 5.30031L14.6335 2.47281C13.7019 2.06115 12.2935 2.06115 11.3619 2.47281L5.01354 5.30031C3.41021 6.01531 3.17188 6.99031 3.17188 7.51031C3.17188 8.03031 3.41021 9.00531 5.01354 9.72031L11.3619 12.5478C11.8277 12.7536 12.4127 12.862 12.9977 12.862C13.5827 12.862 14.1677 12.7536 14.6335 12.5478L20.9819 9.72031C22.5852 9.00531 22.8235 8.03031 22.8235 7.51031C22.8235 6.99031 22.596 6.01531 20.9819 5.30031Z" fill="white"/>
<path opacity="0.4" d="M13.0023 18.4574C12.5906 18.4574 12.179 18.3707 11.7998 18.2082L4.49813 14.9582C3.38229 14.4599 2.51562 13.1274 2.51562 11.9032C2.51562 11.4591 2.87312 11.1016 3.31729 11.1016C3.76146 11.1016 4.11896 11.4591 4.11896 11.9032C4.11896 12.4882 4.60646 13.2466 5.14812 13.4849L12.4498 16.7349C12.7965 16.8866 13.1973 16.8866 13.544 16.7349L20.8456 13.4849C21.3873 13.2466 21.8748 12.4991 21.8748 11.9032C21.8748 11.4591 22.2323 11.1016 22.6765 11.1016C23.1206 11.1016 23.4781 11.4591 23.4781 11.9032C23.4781 13.1166 22.6115 14.4599 21.4956 14.9582L14.194 18.2082C13.8256 18.3707 13.414 18.4574 13.0023 18.4574Z" fill="white"/>
<path opacity="0.4" d="M13.0023 23.8324C12.5906 23.8324 12.179 23.7457 11.7998 23.5832L4.49813 20.3332C3.29563 19.8024 2.51562 18.5999 2.51562 17.2782C2.51562 16.8341 2.87312 16.4766 3.31729 16.4766C3.76146 16.4766 4.11896 16.8341 4.11896 17.2782C4.11896 17.9607 4.51979 18.5782 5.14812 18.8599L12.4498 22.1099C12.7965 22.2616 13.1973 22.2616 13.544 22.1099L20.8456 18.8599C21.4631 18.5891 21.8748 17.9607 21.8748 17.2782C21.8748 16.8341 22.2323 16.4766 22.6765 16.4766C23.1206 16.4766 23.4781 16.8341 23.4781 17.2782C23.4781 18.5999 22.6981 19.7916 21.4956 20.3332L14.194 23.5832C13.8256 23.7457 13.414 23.8324 13.0023 23.8324Z" fill="white"/>
</svg>
