<?xml version="1.0" standalone="no"?>
<!DOCTYPE svg PUBLIC "-//W3C//DTD SVG 20010904//EN"
 "http://www.w3.org/TR/2001/REC-SVG-20010904/DTD/svg10.dtd">
<svg version="1.0" xmlns="http://www.w3.org/2000/svg"
 width="64.000000pt" height="64.000000pt" viewBox="0 0 64.000000 64.000000"
 preserveAspectRatio="xMidYMid meet">

<g transform="translate(0.000000,64.000000) scale(0.100000,-0.100000)"
fill="#000000" stroke="none">
<path d="M270 610 c0 -5 -9 -10 -21 -10 -12 0 -23 -8 -26 -20 -4 -16 -15 -20
-67 -22 l-61 -3 0 -265 0 -265 225 0 225 0 0 265 0 265 -61 3 c-52 2 -63 6
-67 22 -3 12 -14 20 -26 20 -12 0 -21 5 -21 10 0 6 -22 10 -50 10 -27 0 -50
-4 -50 -10z m80 -55 c0 -43 -1 -45 -30 -45 -29 0 -30 2 -30 45 0 43 1 45 30
45 29 0 30 -2 30 -45z m-80 15 c0 -5 -7 -10 -15 -10 -8 0 -15 5 -15 10 0 6 7
10 15 10 8 0 15 -4 15 -10z m130 0 c0 -5 -7 -10 -15 -10 -8 0 -15 5 -15 10 0
6 7 10 15 10 8 0 15 -4 15 -10z m-130 -40 c0 -6 -30 -10 -70 -10 l-70 0 0
-230 0 -230 190 0 190 0 0 230 0 230 -70 0 c-40 0 -70 4 -70 10 0 6 33 10 80
10 l80 0 0 -250 0 -250 -210 0 -210 0 0 250 0 250 80 0 c47 0 80 -4 80 -10z
m220 -241 l0 -209 -170 0 -170 0 0 209 0 208 170 0 170 0 0 -208z"/>
<path d="M224 457 c-2 -8 -4 -52 -2 -98 l3 -84 95 0 95 0 0 95 0 95 -93 3
c-71 2 -94 0 -98 -11z m66 -55 c0 -47 1 -49 30 -49 29 0 30 2 30 49 0 45 2 48
25 48 25 0 25 -1 25 -80 l0 -80 -80 0 -80 0 0 80 c0 79 0 80 25 80 23 0 25 -3
25 -48z m40 18 c0 -16 -4 -30 -10 -30 -5 0 -10 14 -10 30 0 17 5 30 10 30 6 0
10 -13 10 -30z"/>
<path d="M210 240 c0 -5 5 -10 10 -10 6 0 10 5 10 10 0 6 -4 10 -10 10 -5 0
-10 -4 -10 -10z"/>
<path d="M250 240 c0 -6 37 -10 90 -10 53 0 90 4 90 10 0 6 -37 10 -90 10 -53
0 -90 -4 -90 -10z"/>
<path d="M210 200 c0 -5 5 -10 10 -10 6 0 10 5 10 10 0 6 -4 10 -10 10 -5 0
-10 -4 -10 -10z"/>
<path d="M250 200 c0 -6 37 -10 90 -10 53 0 90 4 90 10 0 6 -37 10 -90 10 -53
0 -90 -4 -90 -10z"/>
<path d="M210 160 c0 -5 5 -10 10 -10 6 0 10 5 10 10 0 6 -4 10 -10 10 -5 0
-10 -4 -10 -10z"/>
<path d="M250 160 c0 -6 37 -10 90 -10 53 0 90 4 90 10 0 6 -37 10 -90 10 -53
0 -90 -4 -90 -10z"/>
<path d="M210 120 c0 -5 5 -10 10 -10 6 0 10 5 10 10 0 6 -4 10 -10 10 -5 0
-10 -4 -10 -10z"/>
<path d="M250 120 c0 -6 37 -10 90 -10 53 0 90 4 90 10 0 6 -37 10 -90 10 -53
0 -90 -4 -90 -10z"/>
</g>
</svg>
